<svg width="285" height="219" viewBox="0 0 285 219" fill="none" xmlns="http://www.w3.org/2000/svg">
<path d="M248.25 3.25C266.466 3.25 281.25 17.9742 281.25 36.1582V137.842C281.25 156.026 266.466 170.75 248.25 170.75H69.75C51.5341 170.75 36.75 156.026 36.75 137.842V36.1582L36.7607 35.3076C37.213 17.5171 51.8189 3.25 69.75 3.25H248.25Z" fill="#8C92A5" stroke="black" stroke-width="6.5"/>
<path d="M64 36.5C68.9706 36.5 73 32.6944 73 28C73 23.3056 68.9706 19.5 64 19.5C59.0294 19.5 55 23.3056 55 28C55 32.6944 59.0294 36.5 64 36.5Z" fill="black"/>
<path d="M255 36.5C259.971 36.5 264 32.6944 264 28C264 23.3056 259.971 19.5 255 19.5C250.029 19.5 246 23.3056 246 28C246 32.6944 250.029 36.5 255 36.5Z" fill="black"/>
<path d="M73 149.5C77.9706 149.5 82 145.694 82 141C82 136.306 77.9706 132.5 73 132.5C68.0294 132.5 64 136.306 64 141C64 145.694 68.0294 149.5 73 149.5Z" fill="black"/>
<path d="M255 134C259.224 134 262.5 137.214 262.5 141C262.5 144.786 259.224 148 255 148C250.776 148 247.5 144.786 247.5 141C247.5 137.214 250.776 134 255 134Z" fill="#04FF00" stroke="black" stroke-width="3"/>
<path d="M112 83C112 88.0434 113.496 92.9736 116.298 97.167C119.1 101.36 123.082 104.629 127.742 106.559C132.401 108.489 137.528 108.994 142.475 108.01C147.421 107.026 151.965 104.597 155.531 101.031C159.097 97.465 161.526 92.9213 162.51 87.9748C163.494 83.0283 162.989 77.9011 161.059 73.2416C159.129 68.5821 155.86 64.5995 151.667 61.7975C147.474 58.9956 142.543 57.5 137.5 57.5C135.316 57.5479 133.146 57.8579 131.036 58.4234L134.162 69.3621C135.321 69.0528 136.513 68.8858 137.713 68.8649C140.523 68.8649 143.269 69.6981 145.606 71.2591C147.942 72.8201 149.763 75.0387 150.838 77.6346C151.913 80.2304 152.194 83.0868 151.646 85.8425C151.098 88.5982 149.745 91.1295 147.758 93.1163C145.772 95.103 143.24 96.456 140.485 97.0042C137.729 97.5523 134.873 97.271 132.277 96.1958C129.681 95.1205 127.462 93.2997 125.901 90.9635C124.34 88.6273 123.507 85.8807 123.507 83.071C123.511 81.8649 123.703 80.6668 124.075 79.5195L112.852 76.4652C112.282 78.5965 111.995 80.7937 112 83Z" fill="black"/>
<path d="M137.202 137.167C123.072 137.149 109.527 131.545 99.5353 121.584C89.544 111.623 83.9228 98.1181 83.9044 84.0312C83.905 79.3375 84.5377 74.6652 85.7855 70.1394L74.9865 67.5C70.8389 83.7575 73.2409 100.988 81.678 115.502C90.1152 130.015 103.917 140.659 120.128 145.153C136.339 149.648 153.671 147.636 168.413 139.548C183.154 131.461 194.134 117.94 199 101.882H187.295C183.616 112.196 176.827 121.124 167.859 127.441C158.891 133.758 148.183 137.155 137.202 137.167Z" fill="black"/>
<path d="M227 81.2195C227 79.7645 226.404 78.3691 225.343 77.3402C224.282 76.3114 222.843 75.7334 221.342 75.7334H201.824C199.985 60.2633 192.349 45.9876 180.366 35.6199C168.384 25.2522 152.891 19.5154 136.831 19.5C131.147 19.5277 125.49 20.2652 120 21.6945L122.97 32.2554C127.586 31.0745 132.34 30.4753 137.114 30.4724C150.034 30.6231 162.472 35.2464 172.185 43.5082C181.898 51.7701 188.246 63.1262 190.084 75.5276H175.374C173.874 75.5276 172.435 76.1056 171.374 77.1345C170.313 78.1634 169.716 79.5588 169.716 81.0138C169.716 82.4688 170.313 83.8643 171.374 84.8931C172.435 85.922 173.874 86.5 175.374 86.5H221.342C222.807 86.501 224.215 85.9513 225.27 84.9665C226.325 83.9818 226.945 82.6386 227 81.2195Z" fill="black"/>
<path d="M17.7313 218.5L83 145.5L73.0003 135.5L2.22076e-07 200.769L17.7313 218.5Z" fill="#A6E7FF"/>
<path opacity="0.1" d="M51 152.45L62.4808 156.019L66.0495 167.5L83 148.542L69.9584 135.5L51 152.45Z" fill="black"/>
<path d="M123.943 140.417C126.539 143.849 124.04 148.771 119.642 148.716L119.641 148.716L103.826 148.518C101.436 148.488 99.1788 149.619 97.793 151.553L88.6602 164.297C86.1294 167.828 80.5979 166.949 79.3037 162.84L74.6084 147.935C73.8949 145.669 72.099 143.902 69.8145 143.201L54.7109 138.568L54.7109 138.567C50.6588 137.324 49.7274 132.186 52.9072 129.608L53.2285 129.367L66.1416 120.354C68.0977 118.989 69.2535 116.757 69.2227 114.383L69.0205 98.7744C68.9653 94.4904 73.9351 91.9505 77.4619 94.5479L90.1387 103.883C91.9384 105.208 94.247 105.633 96.3945 105.057L96.8213 104.928L111.801 99.915C115.974 98.5189 119.893 102.451 118.501 106.501L113.422 121.283C112.65 123.53 113.048 126.008 114.483 127.907L123.943 140.417Z" fill="#FFD782" stroke="#E3F25D" stroke-width="2"/>
</svg>
